<?xml version="1.0" standalone="no"?>
<!DOCTYPE svg PUBLIC "-//W3C//DTD SVG 20010904//EN"
 "http://www.w3.org/TR/2001/REC-SVG-20010904/DTD/svg10.dtd">
<svg version="1.0" xmlns="http://www.w3.org/2000/svg"
 width="375.000000pt" height="375.000000pt" viewBox="0 0 375.000000 375.000000"
 preserveAspectRatio="xMidYMid meet">
<metadata>
Created by potrace 1.14, written by Peter Selinger 2001-2017
</metadata>
<g transform="translate(0.000000,375.000000) scale(0.100000,-0.100000)"
fill="#000000" stroke="none">
<path d="M36 3735 c-10 -8 -23 -16 -28 -17 -6 -2 4 -19 21 -37 30 -32 31 -35
15 -52 -10 -11 -23 -19 -30 -19 -11 0 -14 -150 -14 -844 l0 -844 35 0 c19 0
42 -8 52 -17 16 -17 16 -19 -6 -36 -15 -13 -31 -16 -52 -12 l-29 5 0 -101 0
-101 45 0 c47 0 123 25 111 37 -3 4 -27 14 -53 22 -58 20 -74 42 -49 70 13 14
26 18 45 15 15 -3 51 3 81 13 45 15 65 17 109 9 52 -9 55 -8 75 17 25 32 36
33 119 10 77 -21 99 -40 88 -79 l-8 -29 -89 3 c-58 3 -95 9 -105 18 -20 18
-29 18 -29 0 0 -7 -24 -21 -55 -31 -108 -33 -67 -55 57 -29 46 9 139 17 208
19 69 1 139 5 155 10 40 10 78 45 65 60 -9 11 8 22 90 58 19 9 71 18 115 21
44 2 95 8 113 12 24 5 38 2 52 -11 17 -15 31 -16 151 -5 73 6 136 7 140 3 5
-5 9 -23 11 -41 3 -38 17 -40 54 -9 27 23 54 85 54 125 0 19 3 21 18 11 13 -8
17 -20 14 -40 -3 -20 1 -31 12 -35 9 -3 16 -11 16 -18 0 -18 54 -76 72 -76 9
0 29 -5 45 -12 32 -13 39 -14 71 -16 15 -1 26 -10 29 -22 3 -11 8 -20 12 -20
4 0 13 -22 20 -49 7 -28 16 -51 21 -53 5 -2 10 -25 12 -53 2 -36 7 -50 18 -50
8 0 21 -8 29 -19 12 -16 23 -18 73 -13 48 4 58 3 54 -9 -9 -24 15 -27 38 -5
12 12 28 21 34 21 7 0 12 4 12 8 0 4 19 9 42 11 23 1 44 4 46 6 2 2 4 20 4 39
0 20 3 36 7 36 16 0 30 78 32 170 3 158 15 164 276 148 129 -8 193 -8 243 1
93 15 232 14 253 -1 16 -12 16 -15 -2 -45 -12 -19 -31 -34 -50 -38 -42 -9 -48
-24 -14 -35 32 -12 58 -59 48 -90 -4 -11 -23 -29 -43 -41 -67 -36 -117 -77
-123 -101 -14 -49 -10 -56 54 -87 94 -45 121 -48 149 -16 18 21 24 42 28 103
7 98 24 131 78 159 71 36 73 39 66 102 l-6 56 38 25 c51 33 54 62 15 142 -16
35 -39 83 -50 108 -23 51 -85 155 -129 215 -56 77 -56 75 -62 336 -7 275 -8
280 -77 316 l-38 20 3 68 c4 90 -13 109 -111 126 -62 10 -77 9 -119 -6 -43
-15 -58 -16 -153 -4 l-104 13 -26 50 c-13 28 -42 69 -63 91 -22 22 -42 51 -46
63 -12 38 -86 100 -140 119 -28 9 -55 17 -59 18 -4 0 -11 6 -16 13 -5 9 -35
14 -89 15 -61 1 -82 5 -82 15 0 7 -4 11 -9 7 -5 -3 -12 -1 -15 4 -4 5 -32 -1
-66 -14 -33 -13 -62 -19 -65 -14 -11 17 -40 9 -78 -22 -21 -17 -44 -28 -52
-25 -8 3 -20 0 -27 -7 -34 -32 -73 -57 -90 -57 -10 0 -31 -12 -45 -26 -21 -21
-23 -28 -12 -35 11 -8 8 -15 -16 -34 -49 -41 -70 -42 -114 -2 -21 19 -74 52
-117 73 -44 21 -101 58 -128 81 -53 45 -146 94 -218 114 -88 25 -262 -2 -294
-46 -12 -16 -71 -20 -93 -6 -8 5 -16 22 -19 38 -5 37 -5 37 -58 34 -25 -1 -43
2 -40 7 3 5 -6 20 -20 33 -24 23 -34 24 -162 27 -109 2 -141 -1 -156 -13z
m384 -175 c-12 -25 -20 -57 -19 -70 7 -78 -20 -93 -72 -41 -24 25 -29 38 -29
80 0 40 11 86 26 109 2 2 20 10 40 17 38 13 39 12 57 -18 19 -30 18 -31 -3
-77z m292 -8 c8 -8 5 -19 -8 -39 -24 -36 -44 -81 -44 -100 0 -33 -41 -73 -81
-79 -35 -6 -42 -12 -62 -53 -19 -39 -27 -46 -52 -47 -77 -3 -75 -2 -75 -36 0
-17 3 -28 7 -25 3 4 12 2 20 -4 9 -9 17 -8 27 0 19 16 78 33 71 20 -4 -5 -12
-9 -20 -9 -8 0 -11 -7 -8 -18 7 -27 -35 -46 -71 -33 -15 6 -39 11 -54 11 -15
0 -36 6 -48 13 -94 56 -115 75 -139 122 -14 27 -34 62 -46 77 -12 15 -19 33
-16 42 11 29 52 18 101 -29 67 -63 97 -62 161 6 41 44 51 50 67 40 10 -6 31
-11 48 -11 25 0 33 7 51 42 15 30 19 51 15 79 -9 59 8 70 85 54 33 -7 66 -18
71 -23z m1201 -241 c46 -28 96 -51 110 -51 37 0 137 -39 137 -53 1 -19 34 -53
58 -59 12 -3 22 -3 22 1 0 4 14 8 30 9 44 3 57 -36 58 -168 1 -100 0 -104 -16
-84 -21 26 -78 59 -115 68 -17 4 -31 16 -37 32 -11 28 -47 30 -42 3 2 -13 -10
-17 -54 -22 -30 -3 -63 -12 -71 -19 -9 -7 -24 -12 -35 -10 -10 2 -18 -3 -18
-10 0 -7 -9 -19 -20 -26 -20 -12 -28 -47 -12 -54 17 -7 50 -65 62 -108 20 -74
28 -85 62 -87 18 -2 35 2 38 8 5 7 22 6 54 -2 34 -8 50 -9 55 -1 3 6 20 14 36
18 17 4 35 10 40 14 6 5 26 11 47 15 32 6 37 11 43 42 4 21 2 40 -4 46 -6 6
-11 22 -11 37 l0 25 15 -25 c39 -68 40 -75 39 -220 -1 -80 -6 -156 -11 -169
l-10 -25 -23 27 c-13 15 -30 27 -37 27 -7 0 -13 6 -13 14 0 7 -11 16 -25 18
-14 3 -25 1 -25 -6 0 -8 -2 -8 -8 0 -4 7 -24 19 -46 28 -21 9 -56 31 -76 50
-61 55 -114 63 -66 11 15 -16 26 -34 26 -41 0 -16 -36 -19 -45 -4 -12 20 -117
-13 -137 -43 -4 -7 -12 -6 -22 2 -9 8 -31 11 -51 9 -40 -5 -49 9 -35 48 13 33
13 34 -8 34 -11 0 -33 -15 -50 -34 -17 -19 -37 -38 -44 -43 -27 -16 -77 -109
-83 -155 -4 -27 -10 -48 -14 -48 -4 0 -13 16 -20 35 -7 19 -19 35 -28 35 -9 0
-13 -6 -9 -15 3 -9 -3 -19 -15 -26 -13 -7 -19 -17 -16 -29 2 -10 1 -23 -3 -30
-5 -8 -11 5 -15 31 -4 24 -13 67 -20 94 -8 28 -19 98 -26 158 -11 95 -11 120
5 220 10 61 20 155 22 208 5 130 39 213 123 302 50 53 63 58 163 53 83 -4 90
-7 171 -55z m592 -571 c3 -5 1 -10 -4 -10 -6 0 -11 5 -11 10 0 6 2 10 4 10 3
0 8 -4 11 -10z m-1214 -45 c-14 -17 -22 -89 -12 -104 7 -11 13 -6 25 22 10 25
20 35 29 31 19 -7 30 -45 17 -58 -6 -6 -10 -24 -10 -42 0 -26 9 -40 41 -68 36
-30 41 -39 36 -64 -3 -16 -1 -34 6 -41 8 -8 8 -14 -1 -23 -17 -17 -75 32 -112
97 -42 73 -61 146 -53 204 7 59 22 89 34 70 4 -7 4 -18 0 -24z m1212 -135 c3
0 8 8 10 18 4 14 5 14 5 -3 1 -25 -26 -96 -27 -72 -1 9 -5 17 -11 17 -5 0 -9
16 -8 36 1 31 3 34 13 20 7 -9 15 -16 18 -16z m-53 -160 c-12 -22 -30 -18 -30
6 0 8 9 14 20 14 18 0 19 -3 10 -20z m-479 -93 c7 -12 5 -18 -8 -25 -46 -22
-143 -7 -143 22 0 28 136 31 151 3z m-461 -57 c0 -5 -4 -10 -10 -10 -5 0 -10
5 -10 10 0 6 5 10 10 10 6 0 10 -4 10 -10z m339 -4 c13 -9 142 -9 176 -1 19 5
26 4 20 -2 -16 -15 -107 -34 -164 -35 -47 0 -51 -2 -51 -23 0 -13 -7 -28 -16
-33 -13 -7 -12 -15 11 -57 25 -48 25 -49 6 -68 -14 -14 -23 -17 -37 -9 -11 5
-36 12 -57 16 -70 13 -91 87 -50 178 l22 48 65 -5 c36 -2 70 -6 75 -9z m271
-102 c0 -9 -5 -34 -12 -55 -8 -28 -17 -39 -30 -39 -11 0 -29 -5 -40 -11 -16
-9 -24 -8 -36 5 -14 14 -13 16 10 25 14 5 41 28 59 50 37 44 49 50 49 25z
m-136 -113 c17 -7 16 -9 -10 -19 -24 -10 -54 -11 -84 -2 -5 2 61 28 70 29 3 0
14 -4 24 -8z"/>
<path d="M1650 2961 c-50 -11 -120 -49 -120 -66 0 -26 4 -30 35 -31 47 -1 47
-2 15 -31 -17 -16 -33 -39 -35 -53 -5 -26 -5 -26 60 -22 65 4 88 -8 43 -23
-19 -6 -16 -9 22 -15 25 -4 55 -3 68 1 14 5 21 5 18 0 -10 -16 38 1 71 25 38
28 51 87 37 165 l-9 50 -85 3 c-47 2 -101 1 -120 -3z"/>
<path d="M480 3665 c0 -8 4 -15 10 -15 5 0 7 7 4 15 -4 8 -8 15 -10 15 -2 0
-4 -7 -4 -15z"/>
<path d="M1447 1512 c6 -49 -9 -57 -56 -28 -22 15 -41 23 -41 19 0 -9 71 -73
81 -73 5 0 9 -10 9 -22 0 -12 3 -18 7 -15 3 4 12 -1 20 -11 8 -9 12 -11 8 -4
-8 15 0 15 26 2 10 -6 19 -18 19 -27 0 -14 -2 -14 -15 3 -20 26 -19 8 2 -27
10 -16 23 -27 30 -25 7 3 15 0 19 -6 4 -7 9 -6 14 2 11 18 33 1 25 -19 -5 -13
-4 -14 6 -3 7 6 17 12 21 12 4 0 8 -6 8 -12 0 -8 14 -13 31 -14 17 -1 35 -7
40 -15 7 -12 9 -11 9 1 0 13 2 13 9 1 6 -10 20 -12 45 -8 30 5 36 2 42 -16 12
-40 84 -89 84 -57 0 6 3 9 8 8 4 -1 18 4 31 11 17 9 26 10 34 2 8 -8 8 -11 -1
-11 -7 0 -12 -7 -12 -16 0 -11 -6 -15 -20 -11 -11 3 -23 1 -26 -4 -3 -5 -16
-6 -30 -3 -18 5 -24 2 -24 -11 0 -11 -5 -15 -15 -11 -8 3 -15 2 -15 -3 0 -5 7
-14 15 -21 12 -10 15 -10 15 2 0 23 84 17 88 -6 5 -22 41 -17 72 12 13 12 28
22 33 22 5 0 7 6 4 14 -8 20 3 27 24 15 14 -7 19 -6 19 3 0 9 3 9 10 -2 16
-24 12 -39 -12 -45 -15 -4 -23 -14 -24 -30 -2 -27 17 -24 49 8 18 18 18 23 7
58 -8 23 -20 39 -29 39 -14 1 -13 2 2 11 9 6 31 9 49 7 20 -2 33 2 36 11 3 9
0 12 -10 9 -8 -4 -15 -1 -15 5 0 7 15 13 32 14 27 1 31 -2 30 -20 -1 -16 -11
-24 -38 -30 -52 -12 -47 -32 8 -33 31 -1 45 3 45 13 0 7 5 13 10 13 6 0 10 -4
10 -10 0 -5 7 -10 15 -10 17 0 20 21 4 37 -7 7 -1 14 20 22 28 12 51 41 32 41
-5 0 -11 -7 -14 -15 -4 -9 -17 -13 -37 -12 -36 2 -41 27 -6 27 14 0 27 4 30 8
3 5 19 9 37 10 33 1 44 7 44 25 0 7 8 11 18 9 10 -2 17 3 17 13 0 11 11 15 38
16 29 0 33 2 17 9 -19 8 -19 8 -1 15 29 12 103 85 86 85 -8 0 -39 -11 -68 -25
-30 -14 -60 -25 -67 -25 -7 0 -15 -5 -17 -11 -2 -7 -10 -10 -16 -8 -9 3 -7 11
8 27 25 26 13 28 -38 6 -58 -25 -151 -52 -222 -64 -79 -14 -238 -14 -276 0
-15 6 -39 12 -53 14 -67 8 -245 83 -312 132 l-45 33 3 -27z m33 -39 c0 -10
-20 -40 -20 -31 0 3 -3 13 -6 22 -4 11 -1 16 10 16 9 0 16 -3 16 -7z m870 -77
c0 -2 -8 -10 -17 -17 -16 -13 -17 -12 -4 4 13 16 21 21 21 13z m-223 -112 c-3
-3 -12 -4 -19 -1 -8 3 -5 6 6 6 11 1 17 -2 13 -5z m-177 -64 c0 -5 -5 -10 -11
-10 -5 0 -7 5 -4 10 3 6 8 10 11 10 2 0 4 -4 4 -10z m-90 -10 c0 -5 -4 -10
-10 -10 -5 0 -10 5 -10 10 0 6 5 10 10 10 6 0 10 -4 10 -10z m164 -5 c3 -9 0
-15 -9 -15 -8 0 -15 7 -15 15 0 8 4 15 9 15 5 0 11 -7 15 -15z m26 5 c0 -5 -2
-10 -4 -10 -3 0 -8 5 -11 10 -3 6 -1 10 4 10 6 0 11 -4 11 -10z m-40 -64 c0
-17 -38 -28 -59 -16 -14 8 -14 9 -1 14 8 2 22 7 30 9 25 9 30 8 30 -7z"/>
<path d="M1170 1356 c0 -2 9 -6 20 -9 11 -3 20 -1 20 4 0 5 -9 9 -20 9 -11 0
-20 -2 -20 -4z"/>
<path d="M1140 1340 c-9 -6 -10 -10 -3 -10 6 0 15 5 18 10 8 12 4 12 -15 0z"/>
<path d="M1394 1323 c6 -12 13 -18 16 -13 3 5 18 11 34 14 45 8 41 14 -11 17
-47 4 -48 3 -39 -18z"/>
<path d="M2490 1343 c0 -5 8 -17 17 -28 14 -18 15 -18 9 -2 -3 10 -6 23 -6 28
0 5 -4 9 -10 9 -5 0 -10 -3 -10 -7z"/>
<path d="M1057 1333 c-14 -4 -15 -8 -7 -18 8 -10 8 -15 -1 -21 -8 -5 -4 -11
12 -21 19 -11 20 -13 4 -9 -18 6 -18 4 3 -13 12 -11 22 -24 22 -29 0 -12 39
-27 47 -18 4 3 1 6 -5 6 -15 0 -42 29 -42 46 0 8 6 14 13 13 30 -4 58 2 52 11
-4 6 -13 7 -23 1 -31 -16 -81 16 -52 34 12 7 14 26 3 24 -5 -1 -16 -3 -26 -6z"/>
<path d="M1312 1319 c-15 -5 -20 -13 -16 -21 6 -9 9 -9 12 0 2 8 16 10 43 6
23 -4 39 -3 39 3 0 5 -6 10 -12 10 -7 0 -20 3 -28 6 -8 3 -25 2 -38 -4z"/>
<path d="M2443 1307 c-28 -10 -54 -47 -32 -47 5 0 9 -4 9 -9 0 -4 -11 -7 -26
-5 -19 2 -23 -1 -15 -10 6 -7 8 -16 4 -19 -3 -4 -1 -13 5 -20 7 -8 9 -17 5
-21 -4 -4 0 -4 10 0 9 3 17 10 17 14 0 5 9 6 19 3 16 -4 19 -1 14 16 -3 12 -9
24 -14 26 -14 9 2 35 23 35 10 0 16 5 13 10 -3 6 1 10 10 10 9 0 15 5 13 12
-6 16 -17 17 -55 5z"/>
<path d="M1223 1293 c-13 -2 -29 -13 -36 -23 -7 -10 -22 -20 -34 -22 -17 -2
-20 -6 -13 -18 9 -13 11 -13 19 0 16 24 26 2 11 -24 -7 -14 -18 -22 -26 -19
-8 3 -14 1 -14 -4 0 -6 -21 -10 -47 -11 -27 0 -40 2 -31 6 11 5 14 12 9 21 -6
9 -11 10 -15 2 -4 -6 -12 -9 -17 -6 -5 4 -9 -1 -9 -9 0 -10 -10 -17 -27 -18
-42 -2 -47 -3 -60 -11 -20 -13 -15 -26 7 -20 11 3 20 0 20 -6 0 -6 -4 -11 -9
-11 -5 0 -22 -5 -38 -12 -15 -6 -39 -13 -52 -15 -21 -4 -23 -1 -19 21 3 15 2
26 -3 26 -4 0 -11 9 -14 20 -8 24 -25 27 -25 4 0 -8 -4 -12 -10 -9 -5 3 -10
13 -10 21 0 8 4 13 8 10 4 -2 14 -1 21 4 22 13 62 -28 55 -57 -7 -26 -2 -28
25 -11 18 11 18 12 -2 28 l-21 17 27 18 c22 14 30 15 42 5 9 -8 15 -8 15 -2 0
6 -6 12 -12 15 -7 2 -10 8 -6 12 4 4 21 3 37 -3 19 -7 33 -7 36 -1 4 5 1 9 -4
9 -6 0 -11 12 -11 26 0 19 -4 25 -15 20 -8 -3 -15 -1 -15 5 0 6 -8 5 -21 -2
-15 -8 -18 -13 -10 -18 9 -6 8 -11 -4 -21 -8 -7 -15 -9 -15 -5 0 5 -8 -2 -19
-14 -15 -18 -20 -19 -25 -6 -3 8 -3 22 0 30 5 11 -1 15 -20 15 -14 0 -26 -4
-26 -9 0 -5 -13 -12 -30 -16 -16 -4 -30 -11 -30 -16 0 -5 -11 -9 -25 -9 -16 0
-25 -6 -25 -16 0 -14 3 -14 15 -4 10 9 15 9 15 1 0 -6 7 -11 16 -11 8 0 12 -5
9 -10 -4 -6 -14 -9 -23 -8 -13 2 -16 -3 -14 -24 1 -14 -2 -29 -8 -33 -5 -3
-10 -16 -10 -29 0 -12 -3 -26 -7 -30 -5 -4 -8 -20 -9 -34 0 -42 -26 -183 -32
-177 -7 6 -3 153 5 184 4 16 2 22 -5 17 -8 -5 -10 -1 -6 9 4 10 -1 22 -15 31
-11 8 -21 24 -21 35 0 11 -7 19 -16 19 -15 0 -15 -2 0 -25 10 -15 12 -25 6
-25 -6 0 -9 -4 -6 -8 3 -5 1 -22 -4 -38 -4 -16 -9 -23 -9 -16 -2 24 -21 11
-22 -15 -2 -27 -2 -27 -6 -3 -8 48 -12 53 -28 40 -8 -7 -15 -20 -14 -29 0 -12
2 -11 9 4 6 12 8 -28 6 -108 -2 -70 -7 -131 -11 -135 -4 -4 -5 3 -2 16 3 13
-1 28 -10 37 -8 8 -10 15 -5 15 6 0 9 32 9 74 -1 41 -5 72 -9 70 -5 -3 -8 -13
-8 -22 0 -13 -2 -14 -9 -4 -6 10 -10 4 -15 -20 -13 -60 -26 -142 -36 -228 -16
-134 -30 -191 -43 -183 -7 3 -4 -3 5 -14 23 -25 23 -32 -1 -26 -21 5 -37 -12
-21 -22 5 -3 9 -16 9 -28 -1 -17 -2 -18 -6 -4 -7 26 -23 21 -23 -8 0 -14 5
-25 11 -25 11 0 6 -41 -13 -96 -16 -45 -4 -77 32 -91 17 -6 34 -22 40 -37 5
-14 16 -26 25 -26 8 0 15 -4 15 -9 0 -5 3 -16 6 -25 5 -13 2 -13 -19 -3 -14 6
-23 15 -20 20 3 5 -3 15 -13 22 -25 19 -35 19 -28 0 8 -21 -13 -19 -51 5 -33
20 -64 18 -66 -4 -10 -77 1 -106 41 -106 10 0 25 -9 33 -20 14 -20 23 -20 268
-18 l254 3 25 87 c14 48 28 90 33 94 13 13 8 20 -16 22 -17 1 -28 -9 -47 -46
-20 -38 -26 -43 -28 -25 -2 12 8 49 21 82 14 34 22 61 18 61 -3 0 -7 18 -8 41
-2 22 1 38 6 35 4 -3 6 16 3 43 -5 52 2 62 45 67 20 2 22 -1 18 -24 -5 -23 -4
-24 4 -6 5 11 22 27 38 35 19 10 28 22 28 39 0 16 5 24 13 22 8 -1 16 7 19 18
4 14 11 19 20 15 11 -4 13 -1 9 11 -4 9 -1 23 5 30 6 7 8 18 4 24 -3 5 1 10
10 10 17 0 17 18 -1 64 -5 12 0 16 17 16 32 0 53 15 44 30 -4 6 1 17 11 24 23
17 3 29 -29 17 -18 -7 -27 -5 -39 8 -36 42 -38 74 -6 107 27 30 21 78 -9 82
-13 2 -23 8 -23 13 0 5 3 8 8 8 28 -5 52 4 57 20 3 10 15 21 25 24 31 8 24 24
-10 25 -27 1 -30 -2 -28 -26 2 -18 -2 -27 -14 -30 -11 -2 -18 3 -18 11 0 8 -9
17 -20 20 -15 4 -20 14 -20 36 0 20 7 34 20 41 11 6 20 7 20 3 0 -4 5 -1 10 7
8 13 11 12 24 -5 8 -11 13 -22 11 -26 -2 -3 2 -6 10 -6 8 0 15 6 15 13 0 11 6
11 27 3 19 -7 29 -7 31 0 2 6 15 11 28 11 14 0 27 7 30 15 4 8 10 12 15 9 5
-3 9 -1 9 5 0 16 56 39 71 30 13 -8 6 -13 -13 -10 -14 2 3 -27 19 -33 20 -8
31 3 14 13 -9 6 -5 10 13 13 15 3 29 1 32 -3 3 -5 -3 -9 -12 -9 -13 0 -15 -3
-7 -11 9 -9 19 -6 42 10 25 18 31 19 31 7 0 -8 7 -19 16 -24 14 -8 14 -10 -1
-25 -9 -10 -12 -17 -6 -17 6 0 11 -7 11 -15 0 -10 10 -15 30 -15 20 0 30 -5
30 -15 0 -8 -6 -15 -12 -16 -47 -4 -81 0 -91 10 -18 18 -27 13 -27 -16 0 -28
-37 -73 -59 -73 -6 0 -11 -4 -11 -10 0 -5 8 -10 17 -10 14 0 13 -3 -5 -20 -17
-16 -30 -19 -57 -14 -34 6 -42 14 -28 27 3 4 13 1 21 -6 13 -10 14 -8 7 12 -5
16 -4 21 4 17 10 -6 11 -2 11 32 0 10 -33 10 -47 -1 -7 -5 -17 -6 -23 -2 -6 4
-10 -3 -10 -17 0 -18 2 -20 10 -8 8 13 10 12 11 -5 1 -11 0 -24 -1 -30 -1 -5
-4 -23 -6 -39 -3 -23 -1 -27 13 -22 9 4 20 2 23 -5 6 -8 13 -8 30 1 27 15 33
9 35 -35 2 -31 -1 -35 -21 -35 -24 0 -32 14 -14 25 20 12 9 25 -20 25 -21 0
-30 -5 -30 -16 0 -11 -6 -14 -20 -9 -20 6 -28 -9 -10 -20 6 -3 10 -13 10 -21
0 -9 -5 -12 -11 -8 -6 3 -15 0 -20 -7 -4 -8 -4 -16 2 -20 9 -5 4 -18 -41 -91
-8 -14 -7 -18 5 -18 8 0 15 -4 15 -10 0 -5 -6 -10 -14 -10 -8 0 -20 -16 -26
-35 -6 -19 -16 -35 -22 -35 -6 0 -8 -11 -6 -25 3 -15 1 -22 -5 -18 -6 4 -8 -2
-5 -15 4 -12 0 -26 -8 -33 -20 -17 -17 -39 5 -39 11 0 23 9 26 20 4 11 11 18
16 15 17 -11 50 15 44 36 -5 15 -2 19 17 17 18 -3 23 2 23 24 1 15 -3 24 -7
22 -5 -3 -22 -3 -38 1 -32 7 -40 29 -15 39 10 4 15 -1 15 -14 0 -11 7 -20 15
-20 8 0 14 4 13 9 -2 5 6 17 17 25 17 14 18 17 5 27 -13 9 -12 10 3 5 9 -3 17
-1 17 4 0 6 3 9 8 8 4 0 15 2 25 7 17 7 17 8 0 21 -17 12 -16 13 7 13 14 0 34
-6 44 -14 11 -8 17 -15 13 -15 -4 0 0 -11 9 -25 15 -23 15 -25 -20 -61 -20
-20 -36 -33 -36 -28 0 6 3 14 8 20 4 5 -7 -6 -25 -25 -17 -18 -29 -39 -27 -46
8 -20 -14 -55 -35 -55 -25 0 -33 -11 -20 -27 9 -10 7 -13 -7 -13 -11 0 -26 -6
-34 -13 -20 -16 -25 -68 -8 -78 9 -6 10 -11 2 -19 -9 -9 -13 -5 -18 13 -3 14
-12 27 -20 30 -12 5 -13 1 -6 -18 7 -20 6 -25 -5 -25 -22 0 -55 -32 -55 -52 0
-10 -5 -15 -13 -12 -10 3 -14 -4 -14 -25 0 -25 2 -27 15 -15 8 8 19 13 26 11
15 -5 14 -33 -1 -30 -7 2 -14 -7 -14 -20 -1 -16 -2 -18 -6 -4 -7 27 -40 20
-56 -12 -14 -27 -13 -31 8 -49 21 -19 50 -16 44 4 -1 5 4 10 13 12 19 4 30
-52 14 -68 -7 -7 22 -10 92 -10 l102 0 0 26 c0 14 -5 34 -10 45 -10 18 -7 19
55 19 l65 0 22 -45 c20 -40 26 -45 56 -45 l35 0 -5 45 -6 45 35 0 c30 0 34 -3
28 -17 -4 -10 -10 -30 -13 -46 -4 -26 -3 -27 43 -27 41 0 46 2 40 18 -64 150
-92 342 -62 414 27 64 107 97 182 76 96 -28 251 -163 375 -328 73 -98 75 -100
115 -100 30 0 30 -1 27 -40 l-4 -40 76 0 c54 0 76 4 76 13 0 17 65 57 94 57
21 0 26 -6 32 -35 l6 -35 109 0 c60 0 109 2 109 5 0 3 -6 16 -14 28 -8 12 -16
36 -18 52 -3 17 -3 24 0 16 3 -11 6 -11 12 -1 9 15 60 23 60 9 0 -5 -6 -9 -13
-9 -10 0 -11 -12 -7 -48 l5 -47 260 -2 c194 -2 261 1 267 10 6 9 8 9 8 0 0
-15 69 -15 88 0 8 6 12 6 12 -1 0 -5 9 -8 20 -5 22 6 27 42 9 60 -6 6 -9 35
-7 67 1 31 -1 57 -5 59 -4 1 -8 22 -9 47 0 25 -5 63 -11 85 -9 36 -12 54 -16
92 -1 15 -31 6 -48 -15 -11 -14 -13 -13 -13 6 0 13 7 25 15 28 8 4 15 11 15
16 0 6 -7 8 -15 4 -8 -3 -15 -1 -15 3 0 11 29 23 39 16 7 -4 8 34 3 56 -4 16
-53 16 -62 0 -8 -14 -9 -14 -10 1 0 10 9 23 20 30 11 7 20 16 20 20 0 5 -9 8
-20 8 -22 0 -25 16 -10 56 18 46 -7 55 -25 10 -9 -21 -18 -37 -19 -35 -8 9 21
123 32 127 7 2 10 8 7 13 -3 5 -1 18 5 29 16 31 -15 26 -36 -5 -25 -38 -31
-30 -23 28 13 88 11 105 -11 112 -12 4 -20 16 -21 28 0 12 -7 -3 -14 -33 -8
-30 -12 -62 -9 -72 3 -9 0 -19 -6 -23 -14 -9 -17 126 -2 150 10 16 11 50 2 86
-5 23 -8 27 -9 12 -1 -13 -5 -23 -11 -23 -5 0 -10 -15 -11 -32 -1 -18 -5 -44
-10 -58 -8 -24 -9 -23 -5 5 1 17 0 44 -4 60 -3 17 -2 40 3 52 7 16 5 26 -8 39
-14 15 -18 15 -26 3 -5 -8 -9 -10 -9 -5 0 5 7 17 15 26 14 16 14 18 -5 23 -16
4 -20 2 -16 -9 4 -12 1 -14 -14 -9 -11 3 -28 1 -37 -5 -16 -10 -15 -11 5 -7
29 7 27 -25 -3 -34 -14 -4 -26 3 -43 25 -15 21 -22 25 -22 13 0 -9 -4 -17 -10
-17 -5 0 -10 6 -10 14 0 10 -12 12 -51 8 -35 -3 -50 -1 -46 6 4 5 0 12 -7 15
-8 3 -16 1 -18 -5 -3 -7 -14 -5 -32 7 -15 10 -25 24 -22 31 3 8 1 14 -3 14 -5
0 -11 -7 -15 -15 -3 -8 -15 -15 -27 -15 -17 0 -20 -4 -15 -22 4 -13 9 -35 13
-51 4 -21 8 -25 19 -16 16 13 35 3 28 -16 -9 -21 48 -14 64 8 13 18 14 18 28
0 18 -24 17 -36 -1 -29 -9 3 -24 1 -34 -6 -25 -15 -111 13 -146 48 -15 14 -29
23 -33 19 -4 -3 1 -11 11 -16 10 -6 16 -17 13 -27 -7 -21 13 -53 21 -34 2 6 9
12 14 12 6 0 7 -4 4 -10 -3 -5 -1 -10 4 -10 19 0 12 -22 -9 -27 -23 -6 -26
-30 -7 -65 10 -20 15 -22 24 -13 7 7 9 16 5 20 -4 5 3 5 16 2 12 -3 22 -1 22
4 0 5 7 9 15 9 18 0 20 -16 3 -23 -7 -3 6 -8 30 -12 35 -6 43 -11 39 -26 -3
-12 2 -19 19 -23 13 -4 24 -13 24 -21 0 -8 7 -15 15 -15 18 0 20 16 3 23 -7 3
-3 6 9 6 14 1 24 -7 28 -21 4 -13 9 -31 11 -40 7 -24 -17 -23 -38 1 -12 14
-26 18 -53 16 -29 -3 -35 0 -31 11 3 8 -1 14 -8 14 -8 0 -16 7 -20 15 -8 22
-28 18 -21 -4 4 -12 0 -21 -12 -25 -16 -7 -15 -9 7 -26 14 -11 19 -20 13 -20
-9 0 -10 -7 -4 -22 17 -45 43 -167 38 -180 -3 -9 -7 -7 -12 7 -35 96 -51 132
-67 147 -11 9 -14 19 -9 23 6 3 8 12 5 19 -6 15 -64 20 -64 5 0 -5 5 -9 10 -9
6 0 10 -4 10 -10 0 -5 -7 -10 -15 -10 -8 0 -15 -7 -15 -15 0 -12 -5 -10 -20 5
-12 12 -18 26 -14 32 4 6 3 8 -4 4 -6 -3 -20 5 -31 20 -11 14 -25 23 -30 20
-5 -4 -13 -1 -17 6 -6 9 -10 5 -15 -12 l-6 -25 -13 28 c-17 36 -1 50 48 43 34
-5 39 3 20 34 -10 16 -10 24 0 41 12 19 11 20 -8 14 -23 -7 -76 10 -98 32 -16
15 -32 17 -32 3 0 -5 7 -10 16 -10 9 0 14 -6 11 -12 -2 -7 -10 -12 -18 -11 -8
2 -20 -6 -27 -17 -7 -12 -8 -20 -2 -20 5 0 10 4 10 8 0 5 7 9 15 9 8 0 15 -3
15 -7 0 -9 -48 -50 -59 -50 -6 0 -12 -3 -14 -7 -3 -5 11 -8 31 -8 39 0 55 -19
22 -28 -16 -4 -20 -12 -18 -36 1 -17 6 -31 11 -31 4 0 5 -5 2 -10 -5 -8 -12
-7 -22 2 -9 7 -27 11 -40 10 -14 -2 -22 1 -21 9 2 8 -12 12 -41 13 -24 0 -46
6 -48 13 -4 11 20 12 56 2 7 -2 16 2 18 9 3 8 -5 12 -23 12 -22 0 -25 3 -16
12 17 17 15 45 -3 52 -12 4 -14 0 -9 -22 3 -16 2 -22 -3 -15 -12 17 -43 10
-59 -12 -8 -10 -14 -15 -14 -9 0 5 -4 3 -9 -5 -7 -11 -13 -10 -32 8 -13 12
-25 17 -27 11 -7 -20 -20 -10 -14 12 3 14 1 19 -6 14 -8 -5 -10 -2 -6 8 3 9
10 13 15 10 5 -3 9 8 9 25 0 16 -6 32 -12 35 -7 3 -2 4 12 3 16 -2 24 -8 22
-17 -10 -40 -11 -52 -5 -65 6 -17 33 -20 33 -4 0 5 5 7 11 3 7 -4 10 1 7 12
-2 11 -9 20 -16 20 -22 3 -23 4 -14 21 12 21 46 27 38 7 -3 -8 3 -24 13 -35
15 -16 20 -17 29 -6 16 19 73 20 65 2 -3 -8 4 -30 16 -48 11 -19 18 -36 16
-39 -10 -9 22 -28 38 -23 25 10 6 60 -24 60 -28 0 -39 32 -14 41 10 4 13 13
10 25 -4 11 -2 19 3 19 12 0 35 49 38 82 2 28 -23 42 -53 31 -14 -5 -14 -8 -1
-17 8 -6 20 -21 26 -32 11 -20 9 -22 -23 -26 -20 -2 -31 0 -28 6 4 5 -1 7 -11
3 -13 -5 -17 -3 -14 11 2 10 11 16 21 14 9 -2 17 2 17 8 0 10 -13 14 -36 11
-13 -2 -27 26 -19 39 2 4 -8 8 -23 8 -15 0 -30 -5 -33 -10 -4 -5 -13 -3 -22 6
-17 18 -47 11 -47 -9 0 -8 8 -14 18 -14 72 -1 108 -32 58 -51 -13 -5 -26 -14
-28 -20 -4 -13 -38 -3 -38 12 0 5 5 6 10 3 6 -3 10 -2 10 4 0 6 6 8 14 5 8 -3
17 0 21 7 5 7 3 10 -6 7 -8 -3 -19 2 -26 11 -6 9 -15 12 -19 8 -5 -4 -2 -12 6
-17 10 -6 4 -8 -20 -8 -43 1 -58 15 -53 51 4 33 -10 35 -26 5 -11 -23 -11 -23
-6 2 5 22 4 23 -7 9 -7 -9 -24 -20 -38 -24 l-25 -9 24 -5 c22 -6 23 -8 8 -23
-22 -21 -21 -29 0 -21 17 7 17 6 0 -20 -22 -33 -21 -37 3 -37 15 0 20 7 20 25
0 18 5 25 19 25 23 0 31 -17 24 -52 -5 -24 -7 -26 -29 -16 -26 12 -47 2 -25
-11 9 -6 5 -14 -16 -29 -26 -20 -27 -21 -6 -22 12 0 25 5 28 10 4 7 12 7 24 0
10 -5 21 -6 25 -3 3 3 6 -1 6 -10 0 -9 11 -19 25 -23 14 -3 25 -13 25 -21 0
-10 -6 -13 -17 -8 -41 16 -152 35 -205 35 -32 0 -58 5 -58 10 0 6 5 10 10 10
6 0 10 9 10 19 0 22 13 34 24 24 9 -10 36 -13 36 -4 0 4 14 6 30 5 32 -2 32 1
13 54 -3 6 1 12 8 13 8 0 5 4 -6 8 -27 11 -39 3 -23 -17 8 -9 8 -13 1 -9 -7 5
-9 1 -6 -12 4 -16 -1 -18 -46 -16 -46 2 -51 0 -46 -16 5 -15 1 -19 -15 -19
-18 0 -21 -4 -16 -24 5 -21 2 -24 -36 -30 -27 -4 -44 -3 -46 4 -2 5 -8 10 -14
10 -6 0 -8 -7 -4 -15 3 -10 -1 -15 -13 -15 -40 0 -50 10 -44 43 6 29 5 31 -11
18 -15 -12 -19 -12 -32 8 -9 12 -20 19 -25 16 -5 -4 -9 2 -9 11 0 13 3 15 11
7 21 -21 83 25 72 53 -5 14 -3 16 11 11 12 -5 16 -3 14 5 -5 14 15 38 31 38
26 0 8 17 -19 18 -20 0 -30 -4 -30 -14 0 -8 -4 -14 -10 -14 -14 0 -13 27 2 32
16 6 2 38 -16 38 -9 0 -12 -7 -9 -20 4 -14 0 -20 -11 -20 -9 0 -16 -4 -16 -10
0 -5 7 -10 15 -10 8 0 15 -4 15 -10 0 -16 -15 -12 -40 10 -13 11 -29 20 -36
20 -12 0 -35 18 -94 72 -10 9 -21 14 -23 11 -3 -2 -15 5 -26 16 -26 26 -20 76
7 66 9 -3 13 -3 9 2 -12 12 -67 12 -67 1 0 -6 -9 0 -20 13 l-19 24 -1 -22 c0
-12 -4 -25 -10 -28 -5 -3 -10 -1 -10 4 0 6 -3 10 -7 10 -19 -3 -34 2 -29 9 6
10 -25 9 -42 -2 -7 -4 -9 -12 -6 -18 4 -7 2 -8 -4 -4 -6 4 -20 1 -31 -6 -17
-10 -24 -9 -46 12 -14 13 -25 19 -25 14 0 -5 -4 -2 -10 6 -5 8 -5 19 0 25 4 5
9 15 9 20 0 6 11 12 23 13 13 2 27 8 33 13 9 9 -1 10 -42 2z m-3 -107 c0 -2
-7 -6 -15 -10 -8 -3 -15 -1 -15 4 0 6 7 10 15 10 8 0 15 -2 15 -4z m1593 -32
c21 -28 18 -38 -6 -28 -9 3 -13 12 -10 20 3 9 -1 14 -12 14 -9 0 -13 5 -10 10
9 15 18 12 38 -16z m-1563 2 c0 -3 -4 -8 -10 -11 -5 -3 -10 -1 -10 4 0 6 5 11
10 11 6 0 10 -2 10 -4z m-40 -16 c0 -5 -4 -10 -9 -10 -6 0 -13 5 -16 10 -3 6
1 10 9 10 9 0 16 -4 16 -10z m1718 -35 c-3 -3 -9 2 -12 12 -6 14 -5 15 5 6 7
-7 10 -15 7 -18z m-81 -11 c-3 -3 -12 -4 -19 -1 -8 3 -5 6 6 6 11 1 17 -2 13
-5z m243 -129 c1 -38 1 -90 0 -115 -1 -37 -3 -41 -10 -23 -5 12 -8 34 -7 50 2
19 -6 35 -28 55 l-30 28 28 -6 c23 -5 27 -3 27 15 0 12 -9 31 -20 43 -25 27
-25 38 -1 45 12 3 18 11 15 21 -2 10 2 4 10 -13 8 -16 15 -61 16 -100z m-2265
95 c4 -7 12 -7 25 0 10 5 22 10 25 10 14 0 -7 -100 -50 -230 l-14 -45 -2 70
c-1 39 -1 87 1 109 1 25 -2 36 -9 32 -7 -5 -9 -1 -5 9 4 8 1 22 -5 29 -9 11
-9 15 1 19 20 8 26 8 33 -3z m98 3 c9 -9 -13 -34 -24 -27 -14 8 -11 34 4 34 8
0 17 -3 20 -7z m1880 -65 c4 -12 2 -15 -9 -11 -7 3 -14 9 -14 13 0 5 -3 17 -7
27 -6 16 -5 16 8 3 8 -8 18 -23 22 -32z m105 14 c2 -12 7 -20 12 -17 5 3 14
-4 21 -17 9 -16 9 -23 0 -26 -17 -6 -13 -20 9 -27 23 -7 27 -25 5 -25 -8 0
-15 5 -15 10 0 6 -11 15 -26 20 -19 8 -23 14 -16 26 7 12 4 22 -9 35 -10 10
-16 25 -13 34 9 22 28 13 32 -13z m-1431 -8 c-9 -9 -28 6 -21 18 4 6 10 6 17
-1 6 -6 8 -13 4 -17z m129 18 c6 -4 13 -15 17 -24 3 -10 13 -18 22 -18 18 0
20 -16 3 -24 -7 -3 0 -4 16 -2 16 1 34 10 42 20 12 17 13 17 23 -3 16 -28 14
-33 -9 -26 -11 4 -20 2 -20 -4 0 -6 -18 -11 -40 -11 -38 0 -40 -2 -40 -30 0
-32 -6 -36 -29 -21 -12 8 -12 12 -2 25 8 9 10 16 6 16 -4 0 -1 10 7 23 25 40
4 67 -46 58 -5 -1 -4 5 4 13 14 17 29 20 46 8z m-979 -44 c-3 -7 -5 -2 -5 12
0 14 2 19 5 13 2 -7 2 -19 0 -25z m1518 22 c-3 -5 -10 -10 -16 -10 -5 0 -9 5
-9 10 0 6 7 10 16 10 8 0 12 -4 9 -10z m-1114 -30 c16 0 10 -18 -16 -46 -14
-15 -25 -34 -25 -42 0 -13 -3 -13 -12 -4 -9 9 -10 15 -2 20 6 4 17 29 25 56 8
27 15 41 17 32 2 -9 8 -16 13 -16z m54 0 c3 -6 -1 -13 -10 -16 -19 -8 -30 0
-20 15 8 14 22 14 30 1z m365 -1 c0 -6 -6 -9 -14 -6 -8 3 -17 1 -19 -6 -2 -7
-8 -9 -12 -5 -4 4 -4 11 0 17 8 14 45 14 45 0z m145 1 c-3 -5 -12 -7 -20 -3
-21 7 -19 13 6 13 11 0 18 -4 14 -10z m-300 -10 c3 -5 1 -10 -4 -10 -6 0 -11
5 -11 10 0 6 2 10 4 10 3 0 8 -4 11 -10z m-715 -32 c0 -5 -4 -8 -10 -8 -5 0
-10 10 -10 23 0 18 2 19 10 7 5 -8 10 -18 10 -22z m2300 16 c0 -14 -3 -14 -15
-4 -8 7 -15 14 -15 16 0 2 7 4 15 4 8 0 15 -7 15 -16z m-1329 -23 c13 -11 21
-22 18 -25 -10 -11 -66 18 -62 32 6 17 17 15 44 -7z m774 9 c3 -5 1 -10 -4
-10 -6 0 -11 5 -11 10 0 6 2 10 4 10 3 0 8 -4 11 -10z m-1688 -32 c-3 -7 -5
-2 -5 12 0 14 2 19 5 13 2 -7 2 -19 0 -25z m142 15 c-11 -3 -15 -12 -11 -28 3
-18 0 -25 -12 -25 -19 0 -19 1 -6 34 6 15 17 26 27 25 15 -1 15 -2 2 -6z m706
-3 c3 -5 -1 -10 -10 -10 -9 0 -13 5 -10 10 3 6 8 10 10 10 2 0 7 -4 10 -10z
m911 -16 c-4 -9 -9 -15 -11 -12 -3 3 -3 13 1 22 4 9 9 15 11 12 3 -3 3 -13 -1
-22z m-965 6 c10 0 19 -7 19 -15 0 -9 -9 -15 -25 -15 -15 0 -25 6 -25 14 0 8
-3 16 -7 19 -5 2 -2 2 5 0 8 -1 22 -3 33 -3z m1819 6 c0 -3 -4 -8 -10 -11 -5
-3 -10 -1 -10 4 0 6 5 11 10 11 6 0 10 -2 10 -4z m-1115 -16 c3 -5 1 -10 -4
-10 -6 0 -11 5 -11 10 0 6 2 10 4 10 3 0 8 -4 11 -10z m428 -6 c-6 -17 -33
-19 -33 -1 0 7 9 13 19 14 14 1 18 -3 14 -13z m-1601 -19 c0 -5 -5 -11 -11
-13 -6 -2 -11 4 -11 13 0 9 5 15 11 13 6 -2 11 -8 11 -13z m562 -14 c23 -9 8
-21 -20 -16 -10 2 -25 4 -31 4 -7 1 -13 6 -13 11 0 12 36 12 64 1z m86 -3 c0
7 14 12 35 12 19 0 35 -4 35 -10 0 -5 -6 -9 -12 -7 -7 1 -12 -4 -10 -12 2 -8
-3 -18 -9 -22 -10 -6 -10 -11 0 -23 11 -13 11 -16 -2 -16 -8 0 -25 16 -37 35
-22 36 -37 47 -26 19 3 -8 2 -12 -4 -9 -6 3 -10 1 -10 -5 0 -6 -4 -9 -10 -5
-5 3 0 17 12 30 16 19 24 22 30 13 6 -10 8 -10 8 0z m710 -8 c0 -5 -4 -10 -10
-10 -5 0 -10 5 -10 10 0 6 5 10 10 10 6 0 10 -4 10 -10z m-855 -8 c6 -4 10
-14 9 -22 0 -8 -2 -23 -2 -32 -2 -13 -11 -18 -32 -18 -16 0 -30 -5 -30 -11 0
-5 4 -8 9 -5 5 3 12 -1 15 -10 4 -9 15 -14 30 -12 13 1 31 -4 41 -12 15 -13
19 -12 31 5 8 10 17 16 20 12 13 -13 -19 -37 -48 -37 -17 0 -27 -4 -23 -10 3
-5 1 -10 -4 -10 -6 0 -11 10 -12 23 -1 20 -2 20 -12 -5 -6 -16 -17 -28 -24
-28 -17 0 -17 17 0 23 9 4 8 8 -3 16 -24 17 -42 13 -35 -8 3 -11 1 -22 -5 -26
-5 -3 -10 -1 -10 4 0 6 -10 11 -22 11 -31 0 -52 15 -43 30 5 8 -2 11 -24 9
-17 -2 -29 1 -28 6 1 6 26 9 55 8 47 -1 52 1 52 20 0 18 2 19 10 7 5 -8 10
-10 10 -3 0 6 17 15 38 21 l37 9 -27 11 c-41 17 -36 31 12 41 3 0 10 -3 15 -7z
m255 4 c0 -2 3 -11 6 -19 4 -11 -1 -13 -20 -10 -26 5 -32 14 -19 26 7 8 33 10
33 3z m-320 -16 c0 -5 -4 -10 -10 -10 -5 0 -10 5 -10 10 0 6 5 10 10 10 6 0
10 -4 10 -10z m877 -17 c2 -6 -7 -13 -21 -15 -21 -4 -23 -3 -13 14 12 19 28
19 34 1z m163 7 c0 -5 -4 -10 -10 -10 -5 0 -10 5 -10 10 0 6 5 10 10 10 6 0
10 -4 10 -10z m100 -11 c0 -5 -4 -9 -10 -9 -5 0 -10 7 -10 16 0 8 5 12 10 9 6
-3 10 -10 10 -16z m354 -4 c5 0 11 -10 12 -23 4 -20 1 -22 -24 -16 -33 8 -41
15 -25 21 7 2 9 11 6 20 -5 12 -3 14 8 7 8 -5 18 -9 23 -9z m-1877 -1 c-3 -3
-12 -4 -19 -1 -8 3 -5 6 6 6 11 1 17 -2 13 -5z m73 -4 c0 -5 -7 -10 -15 -10
-8 0 -15 5 -15 10 0 6 7 10 15 10 8 0 15 -4 15 -10z m2114 2 c2 -4 1 -14 -3
-21 -6 -9 -10 -7 -14 8 -5 20 7 29 17 13z m-1611 -62 c-13 -13 -16 -13 -28 5
-8 11 -19 26 -25 33 -6 6 -7 12 -2 12 4 0 14 -6 21 -12 10 -11 11 -9 5 7 -6
17 -3 17 19 -5 22 -22 23 -27 10 -40z m1004 34 c-9 -9 -28 6 -21 18 4 6 10 6
17 -1 6 -6 8 -13 4 -17z m-1627 8 c0 -16 -41 -52 -52 -46 -7 5 -1 16 18 31 32
26 34 26 34 15z m1367 -4 c-2 -7 3 -18 12 -25 22 -17 31 -16 31 2 0 19 19 19
26 0 3 -8 -1 -22 -10 -30 -15 -15 -18 -15 -45 4 -33 24 -48 61 -24 61 8 0 13
-6 10 -12z m303 2 c0 -5 -7 -7 -15 -4 -8 4 -15 8 -15 10 0 2 7 4 15 4 8 0 15
-4 15 -10z m-1518 -32 c-7 -7 -12 -8 -12 -2 0 14 12 26 19 19 2 -3 -1 -11 -7
-17z m1358 -5 c0 27 77 24 85 -3 3 -11 15 -20 26 -20 10 0 19 -4 19 -10 0 -14
-44 -12 -58 2 -17 17 -36 -10 -20 -29 8 -10 7 -12 -5 -7 -8 3 -18 12 -21 20
-4 9 -16 14 -33 12 -24 -3 -27 0 -29 30 l-2 32 19 -21 c16 -18 19 -19 19 -6z
m490 17 c0 -5 -7 -10 -15 -10 -8 0 -15 5 -15 10 0 6 7 10 15 10 8 0 15 -4 15
-10z m-1916 -58 c-13 -7 -24 -17 -24 -22 0 -6 -7 -10 -15 -10 -19 0 -9 28 19
55 18 18 22 18 33 5 9 -12 7 -17 -13 -28z m1628 26 c-7 -7 -12 -8 -12 -2 0 14
12 26 19 19 2 -3 -1 -11 -7 -17z m-16 -9 c3 -6 17 -9 30 -6 15 2 30 -3 40 -15
17 -17 16 -18 -14 -12 -20 4 -38 2 -47 -6 -13 -11 -18 -10 -30 6 -8 10 -15 25
-15 32 0 15 26 16 36 1z m266 -59 c5 -14 8 -25 6 -26 -2 0 3 -8 11 -17 7 -10
9 -17 5 -17 -14 0 -74 99 -74 121 0 17 40 -31 52 -61z m338 63 c0 -5 -5 -15
-10 -23 -8 -12 -10 -11 -10 8 0 12 5 22 10 22 6 0 10 -3 10 -7z m-263 -19 c-3
-3 -12 -4 -19 -1 -8 3 -5 6 6 6 11 1 17 -2 13 -5z m-2094 -26 c-12 -13 -24
-39 -28 -58 -4 -19 -14 -46 -21 -60 -8 -14 -21 -43 -28 -65 -8 -22 -15 -31
-15 -20 0 22 28 107 47 142 7 12 12 29 12 38 0 20 21 44 39 45 11 0 9 -6 -6
-22z m2092 -8 c3 -5 1 -10 -4 -10 -6 0 -11 5 -11 10 0 6 2 10 4 10 3 0 8 -4
11 -10z m-1985 -33 c0 -12 -13 -37 -30 -55 -16 -18 -30 -40 -30 -48 0 -8 -9
-14 -20 -14 -11 0 -20 -6 -20 -13 0 -8 -6 -14 -14 -14 -20 0 -9 24 34 77 20
25 43 55 51 68 18 28 29 28 29 -1z m1140 9 c0 -8 10 -16 23 -19 21 -3 21 -4 2
-12 -11 -5 -24 -14 -28 -21 -6 -10 -12 -9 -27 6 -24 24 -25 30 -5 30 8 0 15 7
15 15 0 8 5 15 10 15 6 0 10 -6 10 -14z m597 -26 c14 0 23 -6 23 -15 0 -17
-16 -20 -25 -5 -3 6 -14 10 -24 10 -14 0 -18 8 -18 28 0 26 0 26 10 5 6 -15
19 -23 34 -23z m-92 10 c-3 -5 -13 -10 -21 -10 -8 0 -14 5 -14 10 0 6 9 10 21
10 11 0 17 -4 14 -10z m-129 -31 c19 -22 19 -22 -3 -8 -13 8 -23 17 -23 21 0
12 6 9 26 -13z m184 -39 c0 -15 -34 -21 -46 -8 -11 11 -8 13 16 14 17 1 30 -2
30 -6z m652 -52 c-15 -15 -26 -4 -18 18 5 13 9 15 18 6 9 -9 9 -15 0 -24z
m-2052 2 c0 -5 -5 -10 -11 -10 -5 0 -7 5 -4 10 3 6 8 10 11 10 2 0 4 -4 4 -10z
m1308 1 c11 -6 10 -11 -3 -25 -20 -20 -29 -20 -46 0 -10 13 -10 17 2 25 18 11
30 11 47 0z m102 -36 c-12 -15 -30 -12 -30 6 0 5 10 9 21 9 18 0 19 -2 9 -15z
m597 -10 c0 -8 -6 -16 -14 -19 -13 -5 -18 15 -6 27 11 11 20 8 20 -8z m-707
-9 c0 -3 -4 -8 -10 -11 -5 -3 -10 -1 -10 4 0 6 5 11 10 11 6 0 10 -2 10 -4z
m677 -65 c1 -11 -6 -25 -15 -32 -14 -11 -15 -11 -4 1 17 19 15 33 -3 26 -8 -3
-15 -1 -15 3 0 8 15 18 30 20 3 1 6 -8 7 -18z m-2858 -38 c0 -31 -2 -34 -9
-18 -12 28 -12 55 0 55 6 0 10 -17 9 -37z m2951 -19 c0 -10 -6 -14 -14 -11 -7
3 -19 0 -25 -6 -7 -7 -11 -7 -11 -1 0 9 28 28 48 33 1 1 2 -6 2 -15z m-637
-23 c-13 -49 36 -134 58 -99 6 9 10 8 15 -5 9 -24 3 -28 -45 -30 -23 -1 -41
-6 -41 -12 -1 -5 -9 1 -20 14 -22 26 -17 45 9 36 15 -4 17 0 13 25 -2 17 -10
30 -18 30 -19 0 -18 16 1 24 8 3 15 12 15 21 0 8 4 15 9 15 5 0 7 -8 4 -19z
m57 9 c0 -5 -6 -10 -14 -10 -8 0 -18 5 -21 10 -3 6 3 10 14 10 12 0 21 -4 21
-10z m21 -80 c7 0 9 -3 6 -6 -10 -10 -37 16 -36 35 0 11 3 9 9 -6 5 -13 15
-23 21 -23z m-2379 -17 c-3 -15 -7 -20 -12 -13 -4 6 -5 23 -2 37 3 15 7 20 12
13 4 -6 5 -23 2 -37z m2914 12 c-1 -19 2 -35 8 -35 6 0 5 -5 -2 -12 -7 -7 -12
-25 -12 -41 0 -15 -4 -26 -8 -23 -4 2 -7 35 -6 73 3 80 2 73 14 73 5 0 8 -16
6 -35z m-2232 9 c3 -8 2 -12 -4 -9 -6 3 -10 10 -10 16 0 14 7 11 14 -7z m30 0
c3 -8 2 -12 -4 -9 -6 3 -10 10 -10 16 0 14 7 11 14 -7z m-54 -30 c0 -8 -4 -14
-10 -14 -5 0 -10 9 -10 21 0 11 5 17 10 14 6 -3 10 -13 10 -21z m1759 -44 c-1
-12 -2 -12 -6 -1 -4 10 -9 8 -19 -10 -17 -31 -19 -3 -1 34 10 22 13 23 19 9 4
-9 7 -24 7 -32z m451 -46 c0 -8 -4 -14 -10 -14 -5 0 -10 9 -10 21 0 11 5 17
10 14 6 -3 10 -13 10 -21z m-2269 -17 c-13 -13 -26 -3 -16 12 3 6 11 8 17 5 6
-4 6 -10 -1 -17z m1812 4 c9 -34 -19 -49 -44 -23 -10 10 -10 12 4 12 9 0 17 7
17 15 0 21 17 19 23 -4z m537 -11 c0 -5 -4 -10 -10 -10 -5 0 -10 5 -10 10 0 6
5 10 10 10 6 0 10 -4 10 -10z m-970 -20 c0 -5 -4 -10 -9 -10 -6 0 -13 5 -16
10 -3 6 1 10 9 10 9 0 16 -4 16 -10z m-1916 -16 c3 -8 2 -12 -4 -9 -6 3 -10
10 -10 16 0 14 7 11 14 -7z m2822 -10 c-4 -9 -9 -15 -11 -12 -3 3 -3 13 1 22
4 9 9 15 11 12 3 -3 3 -13 -1 -22z m54 -5 c0 -11 -4 -17 -10 -14 -5 3 -10 13
-10 21 0 8 5 14 10 14 6 0 10 -9 10 -21z m-550 7 c0 -15 -14 -35 -21 -30 -15
9 -10 34 6 34 8 0 15 -2 15 -4z m20 -16 c0 -11 -4 -20 -9 -20 -5 0 -7 9 -4 20
3 11 7 20 9 20 2 0 4 -9 4 -20z"/>
<path d="M3050 1040 c0 -5 5 -10 11 -10 5 0 7 5 4 10 -3 6 -8 10 -11 10 -2 0
-4 -4 -4 -10z"/>
<path d="M822 1000 c0 -14 2 -19 5 -12 2 6 2 18 0 25 -3 6 -5 1 -5 -13z"/>
<path d="M2530 1295 c0 -2 10 -10 23 -16 20 -11 21 -11 8 4 -13 16 -31 23 -31
12z"/>
<path d="M1380 1280 c0 -5 5 -10 10 -10 6 0 10 5 10 10 0 6 -4 10 -10 10 -5 0
-10 -4 -10 -10z"/>
<path d="M894 1265 c-16 -12 -17 -14 -3 -15 9 0 19 7 23 15 7 19 5 19 -20 0z"/>
<path d="M1310 1270 c0 -5 5 -10 11 -10 5 0 7 5 4 10 -3 6 -8 10 -11 10 -2 0
-4 -4 -4 -10z"/>
<path d="M2586 1272 c-2 -4 4 -13 15 -20 21 -13 22 -12 13 12 -7 17 -20 21
-28 8z"/>
<path d="M1463 1253 c-7 -2 -13 -11 -13 -19 0 -12 4 -12 20 -4 32 17 26 37 -7
23z"/>
<path d="M1020 1235 c0 -8 4 -15 10 -15 5 0 7 7 4 15 -4 8 -8 15 -10 15 -2 0
-4 -7 -4 -15z"/>
<path d="M1527 1239 c8 -8 16 -8 30 0 16 9 14 10 -11 11 -22 0 -27 -3 -19 -11z"/>
<path d="M1615 1231 c8 -15 -15 -25 -28 -12 -6 6 -18 11 -26 11 -8 0 -11 -3
-8 -7 4 -3 1 -13 -6 -21 -10 -13 -9 -14 10 -8 18 6 21 4 16 -16 -3 -13 -1 -18
4 -12 28 36 60 33 75 -8 9 -21 -11 -29 -56 -21 -41 6 -48 -7 -13 -29 27 -18
103 -23 112 -8 3 6 3 10 -2 9 -19 -3 -33 2 -33 12 0 6 7 9 15 5 9 -3 15 0 15
9 0 8 7 15 15 15 8 0 15 5 15 12 0 9 3 9 12 0 7 -7 20 -12 29 -12 25 0 33 31
13 49 -12 12 -18 13 -21 4 -7 -18 -23 -16 -23 2 0 19 -7 19 -26 0 -20 -19 -46
-8 -39 16 7 22 -20 28 -28 7 -4 -10 -6 -10 -6 0 -1 6 -6 12 -12 12 -5 0 -8 -4
-4 -9z"/>
<path d="M2507 1214 c3 -8 -2 -23 -12 -34 -16 -18 -16 -18 17 -16 28 3 33 6
31 27 l-3 24 20 -24 c11 -12 18 -27 15 -32 -3 -4 3 -17 15 -29 11 -11 20 -28
21 -37 0 -15 2 -15 8 2 5 11 4 34 0 50 -7 26 -7 28 5 13 11 -14 19 -16 49 -7
36 10 54 25 43 36 -4 4 -12 1 -18 -5 -17 -17 -25 -15 -32 11 -5 17 -8 19 -15
8 -6 -9 -10 -10 -16 -2 -5 9 -10 9 -20 1 -10 -8 -16 -7 -22 5 -13 22 -95 31
-86 9z"/>
<path d="M2326 1204 c-3 -9 -6 -16 -6 -17 0 -1 11 -2 24 -2 19 0 21 3 12 18
-13 21 -22 22 -30 1z"/>
<path d="M3026 1192 c-3 -5 1 -9 9 -9 8 0 15 4 15 9 0 4 -4 8 -9 8 -6 0 -12
-4 -15 -8z"/>
<path d="M2435 1161 c-3 -5 0 -11 7 -13 6 -2 9 -12 5 -21 -4 -11 -12 -14 -24
-10 -16 6 -16 5 -4 -10 9 -12 10 -17 2 -17 -7 0 -9 -4 -6 -10 8 -13 45 -13 45
1 0 6 7 17 15 25 14 14 19 11 16 -8 0 -5 6 -8 14 -8 8 0 15 -8 15 -17 1 -16 2
-16 16 2 14 19 16 19 28 3 12 -17 36 -25 36 -13 0 19 -49 52 -73 49 -19 -2
-31 5 -44 24 -19 29 -38 38 -48 23z"/>
<path d="M2240 1140 c0 -5 5 -10 11 -10 5 0 7 5 4 10 -3 6 -8 10 -11 10 -2 0
-4 -4 -4 -10z"/>
<path d="M1352 1117 c3 -23 -10 -26 -45 -12 -17 7 -18 6 -6 -14 14 -21 40 -24
67 -8 7 5 21 6 31 2 27 -8 71 5 71 21 0 20 -27 29 -45 14 -10 -8 -19 -9 -27
-3 -7 6 -21 13 -31 16 -15 6 -18 2 -15 -16z"/>
<path d="M2310 1125 c0 -8 7 -15 15 -15 9 0 12 6 9 15 -4 8 -10 15 -15 15 -5
0 -9 -7 -9 -15z"/>
<path d="M1729 1115 c-12 -7 -17 -15 -12 -18 15 -9 87 -1 91 11 5 15 -54 20
-79 7z"/>
<path d="M2200 1120 c0 -5 5 -10 10 -10 6 0 10 5 10 10 0 6 -4 10 -10 10 -5 0
-10 -4 -10 -10z"/>
<path d="M2635 1109 c-6 -19 9 -49 25 -49 4 0 7 13 8 29 1 35 -24 49 -33 20z"/>
<path d="M1077 1109 c7 -7 15 -10 18 -7 3 3 -2 9 -12 12 -14 6 -15 5 -6 -5z"/>
<path d="M2167 1113 c-11 -10 -8 -25 3 -18 6 3 10 1 10 -4 0 -6 8 -11 18 -11
16 1 16 1 -1 11 -9 6 -15 14 -12 20 7 10 -8 12 -18 2z"/>
<path d="M650 1085 c-8 -9 -8 -15 -2 -15 12 0 26 19 19 26 -2 2 -10 -2 -17
-11z"/>
<path d="M2009 1084 c-18 -22 -21 -88 -3 -74 6 6 10 20 7 30 -4 15 0 20 16 20
23 0 24 1 15 24 -8 20 -18 20 -35 0z"/>
<path d="M1231 1081 c-8 -6 -9 -11 -3 -15 6 -3 14 -1 17 5 9 14 2 20 -14 10z"/>
<path d="M1796 1062 c-3 -4 4 -9 15 -9 23 -2 25 3 4 10 -8 4 -16 3 -19 -1z"/>
<path d="M1340 1050 c-13 -8 -12 -11 5 -24 26 -20 41 -20 25 -1 -6 8 -9 19 -5
25 8 12 -5 13 -25 0z"/>
<path d="M1488 1053 c7 -3 16 -2 19 1 4 3 -2 6 -13 5 -11 0 -14 -3 -6 -6z"/>
<path d="M1970 1050 c0 -16 -36 -20 -57 -7 -6 4 -16 1 -22 -7 -9 -11 -6 -15
19 -18 16 -3 30 -1 30 4 0 5 9 7 19 3 23 -7 33 5 20 25 -7 13 -9 13 -9 0z"/>
<path d="M2467 1043 c6 -15 34 -14 40 2 1 6 -8 11 -21 11 -18 1 -23 -2 -19
-13z"/>
<path d="M1208 1038 c9 -9 15 -9 24 0 9 9 7 12 -12 12 -19 0 -21 -3 -12 -12z"/>
<path d="M2185 1040 c-3 -5 -1 -10 4 -10 6 0 11 5 11 10 0 6 -2 10 -4 10 -3 0
-8 -4 -11 -10z"/>
<path d="M2520 1040 c0 -5 5 -10 11 -10 5 0 7 5 4 10 -3 6 -8 10 -11 10 -2 0
-4 -4 -4 -10z"/>
<path d="M2595 1037 c-6 -7 -9 -20 -7 -29 3 -15 6 -15 23 -5 16 10 21 9 28 -2
6 -8 14 -10 22 -5 8 5 23 7 34 5 l20 -3 -20 20 c-11 10 -21 16 -23 12 -4 -10
-52 0 -52 11 0 13 -13 10 -25 -4z"/>
<path d="M3250 1029 c0 -5 5 -7 10 -4 6 3 10 8 10 11 0 2 -4 4 -10 4 -5 0 -10
-5 -10 -11z"/>
<path d="M1154 1019 c-3 -6 -2 -15 4 -21 6 -6 11 -2 15 11 5 22 -7 29 -19 10z"/>
<path d="M1260 1020 c0 -5 5 -10 11 -10 5 0 7 5 4 10 -3 6 -8 10 -11 10 -2 0
-4 -4 -4 -10z"/>
<path d="M2550 994 c0 -8 5 -12 10 -9 6 4 8 11 5 16 -9 14 -15 11 -15 -7z"/>
<path d="M1360 989 c0 -5 5 -7 10 -4 6 3 10 8 10 11 0 2 -4 4 -10 4 -5 0 -10
-5 -10 -11z"/>
<path d="M1795 990 c3 -5 8 -10 11 -10 2 0 4 5 4 10 0 6 -5 10 -11 10 -5 0 -7
-4 -4 -10z"/>
<path d="M1850 990 c0 -5 5 -10 10 -10 6 0 10 5 10 10 0 6 -4 10 -10 10 -5 0
-10 -4 -10 -10z"/>
<path d="M3256 975 c-3 -10 -2 -23 4 -29 15 -15 22 -2 12 24 -8 21 -9 22 -16
5z"/>
<path d="M1162 972 c-7 -2 -12 -8 -12 -13 0 -4 6 -6 14 -3 8 3 17 1 21 -5 4
-7 -3 -11 -17 -11 -15 0 -29 -10 -40 -31 -10 -17 -13 -27 -5 -23 9 5 9 4 0 -6
-8 -9 -9 -19 -1 -36 12 -27 43 -32 52 -9 3 8 12 15 20 15 10 0 13 6 10 15 -4
8 -10 12 -15 9 -5 -3 -9 -1 -9 5 0 5 9 13 20 16 22 7 24 13 11 34 -7 11 -3 20
12 33 l21 19 -35 -2 c-20 -2 -41 -5 -47 -7z m10 -64 c-9 -9 -15 -9 -24 0 -9 9
-7 12 12 12 19 0 21 -3 12 -12z"/>
<path d="M1897 966 c-21 -6 -35 -14 -32 -18 3 -3 -1 -8 -10 -11 -10 -4 -15 -1
-15 11 0 12 -4 10 -13 -8 -9 -17 -20 -24 -36 -22 -21 2 -22 0 -10 -15 11 -13
11 -17 2 -20 -15 -5 -18 -33 -4 -33 6 0 13 5 16 10 4 6 11 8 16 5 5 -3 6 2 3
12 -4 13 0 11 14 -7 l20 -24 41 42 c23 23 41 47 41 52 0 6 7 10 15 10 9 0 12
6 9 15 -7 17 -6 17 -57 1z m-42 -66 c3 -5 1 -10 -4 -10 -6 0 -11 5 -11 10 0 6
2 10 4 10 3 0 8 -4 11 -10z"/>
<path d="M2668 885 c-22 -29 -22 -35 -3 -35 8 0 15 -7 15 -15 0 -8 4 -15 9
-15 5 0 12 -8 14 -17 3 -11 5 -7 6 10 1 24 21 41 21 17 0 -5 8 -10 18 -10 12
0 17 8 17 30 0 17 -5 30 -12 30 -7 0 -13 -4 -13 -10 0 -5 -12 -10 -26 -10 -14
0 -23 3 -21 8 3 4 2 14 -2 24 -5 14 -8 13 -23 -7z"/>
<path d="M1960 861 c0 -8 3 -11 6 -8 4 3 16 2 27 -4 15 -9 18 -8 12 2 -6 9 -3
11 8 6 10 -3 17 -3 17 2 0 5 -16 11 -35 13 -26 3 -35 0 -35 -11z"/>
<path d="M2900 850 c0 -5 5 -10 10 -10 6 0 10 5 10 10 0 6 -4 10 -10 10 -5 0
-10 -4 -10 -10z"/>
<path d="M421 824 c0 -11 3 -14 6 -6 3 7 2 16 -1 19 -3 4 -6 -2 -5 -13z"/>
<path d="M396 729 c-20 -85 -31 -159 -24 -159 7 0 35 119 44 183 10 70 -2 57
-20 -24z"/>
<path d="M3321 724 c0 -11 3 -14 6 -6 3 7 2 16 -1 19 -3 4 -6 -2 -5 -13z"/>
<path d="M1118 623 c7 -3 16 -2 19 1 4 3 -2 6 -13 5 -11 0 -14 -3 -6 -6z"/>
<path d="M1098 573 c7 -3 16 -2 19 1 4 3 -2 6 -13 5 -11 0 -14 -3 -6 -6z"/>
<path d="M361 544 c0 -11 3 -14 6 -6 3 7 2 16 -1 19 -3 4 -6 -2 -5 -13z"/>
<path d="M1060 530 c0 -13 -5 -18 -15 -14 -8 4 -15 2 -15 -4 0 -5 7 -12 15
-16 8 -3 15 0 15 7 0 9 2 9 8 -1 6 -8 9 -2 9 18 0 16 -4 30 -9 30 -4 0 -8 -9
-8 -20z"/>
<path d="M1632 480 c-75 -46 -81 -171 -17 -368 l36 -112 45 0 c42 0 44 1 44
29 0 17 -4 33 -10 36 -27 17 -5 26 56 23 70 -3 70 -3 93 -61 10 -26 13 -27 84
-27 69 0 75 2 85 25 11 24 78 65 107 65 8 0 15 4 15 9 0 5 -38 56 -84 113
-190 236 -351 331 -454 268z m155 -100 c7 0 13 -4 13 -10 0 -5 -7 -10 -15 -10
-9 0 -20 -10 -25 -22 -8 -22 -9 -22 -9 -2 -1 12 -11 26 -23 32 l-23 11 23 0
c16 1 22 7 23 24 l0 22 11 -22 c6 -13 17 -23 25 -23z"/>
<path d="M1020 450 c0 -5 10 -10 23 -10 18 0 19 2 7 10 -19 13 -30 13 -30 0z"/>
<path d="M907 419 c-8 -28 -3 -34 11 -16 6 7 7 19 3 26 -6 9 -10 6 -14 -10z"/>
<path d="M1011 404 c0 -11 3 -14 6 -6 3 7 2 16 -1 19 -3 4 -6 -2 -5 -13z"/>
<path d="M975 389 c-4 -6 -5 -12 -2 -15 2 -3 7 2 10 11 7 17 1 20 -8 4z"/>
<path d="M912 329 c2 -6 8 -10 13 -10 5 0 11 4 13 10 2 6 -4 11 -13 11 -9 0
-15 -5 -13 -11z"/>
<path d="M940 245 c0 -8 5 -15 10 -15 6 0 10 7 10 15 0 8 -4 15 -10 15 -5 0
-10 -7 -10 -15z"/>
<path d="M337 203 c-11 -10 -8 -20 8 -27 10 -4 15 1 15 14 0 20 -11 26 -23 13z"/>
<path d="M945 86 c-18 -20 -45 -69 -45 -81 0 -3 11 -5 25 -5 16 0 25 6 25 15
0 9 6 26 14 38 8 12 11 30 7 39 -5 15 -8 14 -26 -6z"/>
<path d="M2145 20 c-18 -20 -17 -20 33 -20 54 0 66 12 33 30 -29 15 -46 12
-66 -10z"/>
<path d="M1040 10 c-13 -8 -12 -10 3 -10 9 0 17 5 17 10 0 12 -1 12 -20 0z"/>
</g>
</svg>
